<svg width="21" height="20" viewBox="0 0 21 20" fill="none" xmlns="http://www.w3.org/2000/svg">
<path d="M16.3331 19.6507H5.56098C3.01214 19.6507 0.947021 17.6103 0.947021 15.1032V8.3232C0.947021 7.07879 1.72842 5.51417 2.73307 4.74559L7.74702 0.902661C9.254 -0.250214 11.6633 -0.305112 13.2261 0.774564L18.9749 4.73644C20.0819 5.49587 20.947 7.12454 20.947 8.4513V15.1124C20.947 17.6103 18.8819 19.6507 16.3331 19.6507ZM8.60284 1.98234L3.58888 5.82527C2.92842 6.33766 2.34237 7.49969 2.34237 8.3232V15.1032C2.34237 16.8508 3.78423 18.2782 5.56098 18.2782H16.3331C18.1098 18.2782 19.5517 16.86 19.5517 15.1124V8.4513C19.5517 7.57289 18.9098 6.35596 18.1749 5.86187L12.4261 1.89999C11.3656 1.16801 9.61679 1.20461 8.60284 1.98234Z" fill="#AFAFAF"/>
<path d="M10.9469 15.9907C10.5655 15.9907 10.2493 15.6796 10.2493 15.3045V12.5595C10.2493 12.1844 10.5655 11.8733 10.9469 11.8733C11.3283 11.8733 11.6446 12.1844 11.6446 12.5595V15.3045C11.6446 15.6796 11.3283 15.9907 10.9469 15.9907Z" fill="#AFAFAF"/>
</svg>
